<?xml version="1.0" encoding="utf-8"?>
<!-- Generator: Adobe Illustrator 22.0.1, SVG Export Plug-In . SVG Version: 6.00 Build 0)  -->
<svg version="1.1" id="Layer_1" xmlns="http://www.w3.org/2000/svg" xmlns:xlink="http://www.w3.org/1999/xlink" x="0px" y="0px"
	 viewBox="0 0 300 192" style="enable-background:new 0 0 300 192;" xml:space="preserve">
<style type="text/css">
	.st0{display:none;}
	.st1{font-family:'Jaapokki-Regular';}
	.st2{font-size:100px;}
	.st3{fill:#FFFFFF;}
</style>
<text transform="matrix(1 0 0 1 -1.449 119.4612)" class="st0 st1 st2">GULP</text>
<g>
	<rect class="st3" width="300" height="12"/>
	<rect y="180" class="st3" width="300" height="12"/>
	<g>
		<path class="st3" d="M77.8,87.8h30.3V131h-14v-7c-8.2,6.5-16.8,8.2-22.1,8.2c-20.1-0.2-36.1-16.3-35.9-36.4
			c0.2-19.9,16.4-35.9,36.3-35.9h0.3c8.5,0.1,16.2,3.1,22.3,8l-10.1,9.9c-3.6-2.5-7.8-3.8-12.3-3.9h-0.2c-5.9,0-11.5,2.3-15.7,6.5
			c-4.2,4.1-6.6,9.7-6.6,15.6c-0.1,5.9,2.2,11.6,6.3,15.8c4.2,4.3,9.8,6.7,15.7,6.7h0.3c5.9,0,11.4-2.3,15.6-6.4c3-2.9,5-6.4,6-10.3
			H77.8V87.8z"/>
		<path class="st3" d="M161.9,105.1c0,15-12.2,27.1-27.1,27.1c-15,0-27.1-12.1-27.2-27V60.8h14v44.2c0,3.5,1.4,6.8,3.9,9.3
			s5.8,3.8,9.3,3.8c3.5,0,6.7-1.3,9.2-3.8s3.8-5.7,3.9-9.2h-0.1V60.8h14v44.2H161.9z"/>
		<path class="st3" d="M181.4,117h26.1v13.9h-40.1v-70h14V117z"/>
		<path class="st3" d="M242.9,60.8c11.6,0,21,9.5,21,21.1s-9.4,21-21,21h-8.7v28h-14V60.8H242.9z M242.9,89c3.8,0,7-3.1,7-7
			s-3.2-7.1-7-7.1h-8.7V89H242.9z"/>
	</g>
</g>
</svg>
