<?xml version="1.0" encoding="utf-8"?>
<!-- Generator: Adobe Illustrator 22.0.1, SVG Export Plug-In . SVG Version: 6.00 Build 0)  -->
<svg version="1.1" id="Layer_1" xmlns="http://www.w3.org/2000/svg" xmlns:xlink="http://www.w3.org/1999/xlink" x="0px" y="0px"
	 viewBox="0 0 300 192" style="enable-background:new 0 0 300 192;" xml:space="preserve">
<style type="text/css">
	.st0{display:none;}
	.st1{font-family:'Jaapokki-Regular';}
	.st2{font-size:100px;}
	.st3{fill:#FFFFFF;}
</style>
<text transform="matrix(1 0 0 1 17.9509 131.547)" class="st0 st1 st2">HTML</text>
<g>
	<rect y="0.1" class="st3" width="300" height="12"/>
	<rect y="180.1" class="st3" width="300" height="12"/>
	<g>
		<path class="st3" d="M64.4,61.1h14v70h-14v-29.2H38.5v29.2h-14v-70h14v26.8h25.9V61.1z"/>
		<path class="st3" d="M142.8,61v14h-19.4v56.1h-14V75H89.8V61H142.8z"/>
		<path class="st3" d="M208.5,131.1V88.2l-20.1,18.3l-20.1-18.3v42.9h-14V61h4.8l29.3,26.6L217.6,61h4.9v70.1H208.5z"/>
		<path class="st3" d="M249.4,117.1h26.1V131h-40.1V61h14V117.1z"/>
	</g>
</g>
</svg>
