<?xml version="1.0" encoding="utf-8"?>
<!-- Generator: Adobe Illustrator 22.0.1, SVG Export Plug-In . SVG Version: 6.00 Build 0)  -->
<svg version="1.1" id="Layer_1" xmlns="http://www.w3.org/2000/svg" xmlns:xlink="http://www.w3.org/1999/xlink" x="0px" y="0px"
	 viewBox="0 0 200 200" style="enable-background:new 0 0 200 200;" xml:space="preserve">
<style type="text/css">
	.st0{fill:#FFFFFF;}
	.st1{display:none;}
	.st2{font-family:'Jaapokki-Regular';}
	.st3{font-size:100px;}
</style>
<path class="st0" d="M200,200H0V0h200V200z M12,188h176V12H12V188z"/>
<g>
	<path class="st0" d="M79.4,64.3c11.6,0,21,9.5,21,21.1s-9.4,21-21,21h-8.7v28h-14V64.3H79.4z M79.4,92.4c3.8,0,7-3.1,7-7
		s-3.2-7.1-7-7.1h-8.7v14.1H79.4z"/>
	<path class="st0" d="M114.9,119.8c6.3,7.2,15.9,7.5,15.9,2.1c0-3.2-3.1-4.2-6.3-5.2c-8.4-2.6-14.2-5.2-14.2-13.5
		c0-7.9,7.1-13.1,15.3-13.1c7.4,0,11.4,1.6,17.2,5.1l-5.8,9.1c-8.4-6-14.1-5.5-14.7-0.9c-0.5,3.2,4.2,3.8,9.2,5.5
		c6.1,1.8,11.8,5.9,11.8,13.3c0,6.9-7.1,13.5-15.9,13.5c-7.8,0-15.2-2.5-20.5-7.8L114.9,119.8z"/>
</g>
<text transform="matrix(1 0 0 1 29.4507 122.9744)" class="st1 st2 st3">Ps</text>
</svg>
