<?xml version="1.0" encoding="utf-8"?>
<!-- Generator: Adobe Illustrator 22.0.1, SVG Export Plug-In . SVG Version: 6.00 Build 0)  -->
<svg version="1.1" id="Layer_1" xmlns="http://www.w3.org/2000/svg" xmlns:xlink="http://www.w3.org/1999/xlink" x="0px" y="0px"
	 viewBox="0 0 200 200" style="enable-background:new 0 0 200 200;" xml:space="preserve">
<style type="text/css">
	.st0{fill:#FFFFFF;}
	.st1{display:none;}
	.st2{font-family:'Jaapokki-Regular';}
	.st3{font-size:100px;}
	.st4{letter-spacing:-10;}
</style>
<path class="st0" d="M200,200H0V0h200V200z M12,188h176V12H12V188z"/>
<text transform="matrix(1 0 0 1 -13.1489 122.9744)" class="st1 st2 st3 st4">C4D</text>
<g>
	<path class="st0" d="M69.1,81.8C55.5,73,35,81.2,35,100c0,19.7,21.7,27.6,34.9,17.6l9,10.3c-6.3,5.2-14.4,8.4-23.2,8.4
		c-20,0-36.3-16.3-36.3-36.3s16.3-36.3,36.3-36.3c8.4,0,16.2,2.9,22.4,7.7L69.1,81.8z"/>
	<path class="st0" d="M125.9,105.7V117h-7.8v17.9h-13V117H79.3v-12.9l20.9-39.2h17.8v40.8H125.9z M91.6,105.7h13.4v-26L91.6,105.7z"
		/>
	<path class="st0" d="M145.6,64.8c4.7,0,9.3,0.9,13.6,2.7c4.2,1.8,7.9,4.3,11.1,7.5c3.3,3.3,5.8,7,7.5,11.2
		c1.9,4.3,2.8,8.9,2.8,13.6c0,4.8-0.9,9.4-2.8,13.7c-1.7,4.2-4.2,7.9-7.5,11.1c-3.2,3.2-6.9,5.8-11.1,7.5c-4.3,1.9-8.9,2.8-13.6,2.8
		h-14.1v-0.1h-5.7v-70H145.6z M145.6,120.9c11.6,0,21-9.5,21-21.1s-9.4-21-21-21h-5.8v42.1H145.6z"/>
</g>
</svg>
