<?xml version="1.0" encoding="utf-8"?>
<!-- Generator: Adobe Illustrator 21.1.0, SVG Export Plug-In . SVG Version: 6.00 Build 0)  -->
<svg version="1.1" id="Layer_1" xmlns="http://www.w3.org/2000/svg" xmlns:xlink="http://www.w3.org/1999/xlink" x="0px" y="0px"
	 viewBox="0 0 300 180" style="enable-background:new 0 0 300 180;" xml:space="preserve">
<style type="text/css">
	.st0{fill:none;stroke:#000000;stroke-width:12;stroke-miterlimit:10;}
</style>
<line class="st0" x1="0" y1="0" x2="300" y2="0"/>
<line class="st0" x1="0" y1="180" x2="300" y2="180"/>
<path class="st0" d="M195.2,149.9c-54.2,0-136.7,0-136.7,0v-97h62c0,0,0,0,0.1,0c0-0.1,0.1-0.2,0.1-0.2l8.3-22.5h21h21l8.3,22.5
	c0,0,0,0.1,0.1,0.2c0,0,0.1,0,0.1,0h62v97C241.5,149.9,221.7,149.9,195.2,149.9z"/>
<circle class="st0" cx="150" cy="100" r="22.5"/>
</svg>
