<?xml version="1.0" encoding="utf-8"?>
<!-- Generator: Adobe Illustrator 22.0.1, SVG Export Plug-In . SVG Version: 6.00 Build 0)  -->
<svg version="1.1" id="Layer_1" xmlns="http://www.w3.org/2000/svg" xmlns:xlink="http://www.w3.org/1999/xlink" x="0px" y="0px"
	 viewBox="0 0 300 192.3" style="enable-background:new 0 0 300 192.3;" xml:space="preserve">
<style type="text/css">
	.st0{fill:#FFFFFF;}
</style>
<rect y="0" class="st0" width="300" height="12"/>
<rect y="180" class="st0" width="300" height="12"/>
<path class="st0" d="M247.5,161.9h-195v-109h63.9l8.4-22.8h50.4l8.4,22.8h63.9V161.9z M64.5,149.9h171v-85h-60.2l-1.6-4.1l-6.9-18.6
	h-33.6l-8.4,22.8H64.5V149.9z"/>
<path class="st0" d="M150,134.5c-15.7,0-28.5-12.8-28.5-28.5s12.8-28.5,28.5-28.5s28.5,12.8,28.5,28.5S165.7,134.5,150,134.5z
	 M150,89.5c-9.1,0-16.5,7.4-16.5,16.5c0,9.1,7.4,16.5,16.5,16.5c9.1,0,16.5-7.4,16.5-16.5C166.5,96.9,159.1,89.5,150,89.5z"/>
</svg>
