<?xml version="1.0" encoding="utf-8"?>
<!-- Generator: Adobe Illustrator 22.0.1, SVG Export Plug-In . SVG Version: 6.00 Build 0)  -->
<svg version="1.1" id="Layer_1" xmlns="http://www.w3.org/2000/svg" xmlns:xlink="http://www.w3.org/1999/xlink" x="0px" y="0px"
	 viewBox="0 0 300 192" style="enable-background:new 0 0 300 192;" xml:space="preserve">
<style type="text/css">
	.st0{display:none;}
	.st1{font-family:'Jaapokki-Regular';}
	.st2{font-size:100px;}
	.st3{fill:#FFFFFF;}
</style>
<text transform="matrix(1 0 0 1 54.0515 131.5862)" class="st0 st1 st2">CSS</text>
<g>
	<rect y="0.1" class="st3" width="300" height="12"/>
	<rect y="180.1" class="st3" width="300" height="12"/>
	<g>
		<path class="st3" d="M109.3,77.9c-13.6-8.8-34.1-0.6-34.1,18.2c0,19.7,21.7,27.6,34.9,17.6l9,10.3c-6.3,5.2-14.4,8.4-23.2,8.4
			c-20,0-36.3-16.3-36.3-36.3c0-20,16.3-36.3,36.3-36.3c8.4,0,16.2,2.9,22.4,7.7L109.3,77.9z"/>
		<path class="st3" d="M154.4,101.3c-2.3-0.6-6.6-1.7-10.6-4.4c-5.6-3.7-8.7-9.1-9-15.8c-0.3-5.6,1.5-10.5,5.1-14.3
			c5.2-5.4,12.7-6.9,16.3-6.9c10.2,0,15.9,3.7,21,7l2.3,1.5l-7.3,11.9l-2.5-1.6c-4.5-2.9-7.4-4.8-13.5-4.8c-0.9,0-4.4,0.7-6.2,2.6
			c-0.6,0.6-1.3,1.7-1.2,4c0.1,3.6,2.6,5.6,9,7.2c0.8,0.2,1.4,0.4,2,0.6c6.7,2.3,11.9,5.4,15.5,9.3c3.6,4,5.5,8.7,5.5,13.7
			c0,4.9-2.1,10-5.6,13.9c-4.1,4.6-9.8,7.2-16.1,7.2c-3.1,0-7.3-0.2-12.3-1.7c-6.3-2-11.9-5.5-16.7-10.6l10.2-9.6
			c7.4,7.9,15.7,7.9,18.8,7.9c5.8,0,7.7-5.3,7.7-7.1c0-3.8-4.3-7.3-11.6-9.8l-0.3-0.1L154.4,101.3z"/>
		<path class="st3" d="M214,101.3c-2.3-0.6-6.6-1.7-10.6-4.4c-5.6-3.7-8.7-9.1-9-15.8c-0.3-5.6,1.5-10.5,5.1-14.3
			c5.2-5.4,12.7-6.9,16.3-6.9c10.2,0,15.9,3.7,21,7l2.3,1.5l-7.3,11.9l-2.5-1.6c-4.5-2.9-7.4-4.8-13.5-4.8c-0.9,0-4.4,0.7-6.2,2.6
			c-0.6,0.6-1.3,1.7-1.2,4c0.1,3.6,2.6,5.6,9,7.2c0.8,0.2,1.4,0.4,2,0.6c6.7,2.3,11.9,5.4,15.5,9.3c3.6,4,5.5,8.7,5.5,13.7
			c0,4.9-2.1,10-5.6,13.9c-4.1,4.6-9.8,7.2-16.1,7.2c-3.1,0-7.3-0.2-12.3-1.7c-6.3-2-11.9-5.5-16.7-10.6l10.2-9.6
			c7.4,7.9,15.7,7.9,18.8,7.9c5.8,0,7.7-5.3,7.7-7.1c0-3.8-4.3-7.3-11.6-9.8l-0.3-0.1L214,101.3z"/>
	</g>
</g>
</svg>
