<?xml version="1.0" encoding="utf-8"?>
<!-- Generator: Adobe Illustrator 22.0.1, SVG Export Plug-In . SVG Version: 6.00 Build 0)  -->
<svg version="1.1" id="Layer_1" xmlns="http://www.w3.org/2000/svg" xmlns:xlink="http://www.w3.org/1999/xlink" x="0px" y="0px"
	 viewBox="0 0 200 200" style="enable-background:new 0 0 200 200;" xml:space="preserve">
<style type="text/css">
	.st0{fill:#FFFFFF;}
	.st1{fill-rule:evenodd;clip-rule:evenodd;fill:#FFFFFF;}
</style>
<path class="st0" d="M100,0c27.6,0,52.6,11.2,70.7,29.3C188.8,47.4,200,72.4,200,100c0,27.6-11.2,52.6-29.3,70.7
	C152.6,188.8,127.6,200,100,200s-52.6-11.2-70.7-29.3C11.2,152.6,0,127.6,0,100c0-27.6,11.2-52.6,29.3-70.7C47.4,11.2,72.4,0,100,0
	L100,0z M165.2,34.8c-16.7-16.7-39.7-27-65.2-27s-48.5,10.3-65.2,27c-16.7,16.7-27,39.7-27,65.2c0,25.5,10.3,48.5,27,65.2
	c16.7,16.7,39.7,27,65.2,27s48.5-10.3,65.2-27c16.7-16.7,27-39.7,27-65.2C192.2,74.5,181.9,51.5,165.2,34.8L165.2,34.8z"/>
<path class="st1" d="M100,48.3c-29.3,0-53,23.7-53,53c0,23.4,15.2,43.3,36.2,50.3c2.7,0.5,3.6-1.2,3.6-2.6c0-1.3,0-4.6-0.1-9
	c-14.7,3.2-17.9-7.1-17.9-7.1c-2.4-6.1-5.9-7.8-5.9-7.8c-4.8-3.3,0.4-3.2,0.4-3.2c5.3,0.4,8.1,5.5,8.1,5.5
	c4.7,8.1,12.4,5.8,15.4,4.4c0.5-3.4,1.9-5.8,3.4-7.1c-11.8-1.3-24.1-5.9-24.1-26.2c0-5.8,2.1-10.5,5.5-14.2c-0.5-1.3-2.4-6.7,0.5-14
	c0,0,4.4-1.4,14.6,5.4c4.2-1.2,8.8-1.8,13.3-1.8c4.5,0,9,0.6,13.3,1.8c10.1-6.9,14.6-5.4,14.6-5.4c2.9,7.3,1.1,12.7,0.5,14
	c3.4,3.7,5.4,8.4,5.4,14.2c0,20.4-12.4,24.8-24.2,26.2c1.9,1.6,3.6,4.9,3.6,9.8c0,7.1-0.1,12.8-0.1,14.5c0,1.4,1,3.1,3.6,2.5
	c21-7,36.2-26.9,36.2-50.3C153,72,129.3,48.3,100,48.3z"/>
</svg>
