<?xml version="1.0" encoding="utf-8"?>
<!-- Generator: Adobe Illustrator 22.0.1, SVG Export Plug-In . SVG Version: 6.00 Build 0)  -->
<svg version="1.1" id="Layer_1" xmlns="http://www.w3.org/2000/svg" xmlns:xlink="http://www.w3.org/1999/xlink" x="0px" y="0px"
	 viewBox="0 0 200 200" style="enable-background:new 0 0 200 200;" xml:space="preserve">
<style type="text/css">
	.st0{fill:#FFFFFF;}
	.st1{fill-rule:evenodd;clip-rule:evenodd;fill:#FFFFFF;}
</style>
<path class="st0" d="M100,0c27.6,0,52.7,11.2,70.7,29.3C188.8,47.4,200,72.4,200,100c0,27.6-11.2,52.6-29.3,70.7
	C152.7,188.8,127.6,200,100,200c-27.6,0-52.6-11.2-70.7-29.3C11.2,152.6,0,127.6,0,100c0-27.6,11.2-52.6,29.3-70.7
	C47.4,11.2,72.4,0,100,0L100,0z M165.2,34.8c-16.7-16.7-39.8-27-65.2-27c-25.4,0-48.5,10.4-65.2,27c-16.7,16.7-27,39.7-27,65.2
	c0,25.5,10.4,48.5,27,65.2c16.7,16.7,39.8,27,65.2,27c25.5,0,48.5-10.3,65.2-27c16.7-16.7,27-39.8,27-65.2
	C192.2,74.5,181.9,51.5,165.2,34.8L165.2,34.8z"/>
<path class="st1" d="M74.4,100c0-14.1,11.5-25.6,25.6-25.6c14.2,0,25.6,11.5,25.6,25.6c0,14.2-11.5,25.6-25.6,25.6
	C85.9,125.6,74.4,114.2,74.4,100L74.4,100z M126.5,49.9H73.6c-13,0-23.7,10.6-23.7,23.7v52.9c0,13,10.7,23.7,23.7,23.7h52.9
	c13.1,0,23.7-10.7,23.7-23.7V73.6C150.2,60.5,139.5,49.9,126.5,49.9L126.5,49.9z M73.6,55.8h52.9c9.8,0,17.8,8,17.8,17.8v52.9
	c0,9.8-8,17.8-17.8,17.8H73.6c-9.8,0-17.8-8-17.8-17.8V73.6C55.8,63.8,63.8,55.8,73.6,55.8L73.6,55.8z M131.7,63.3
	c-2.9,0-5.2,2.3-5.2,5.2c0,2.9,2.3,5.2,5.2,5.2c2.9,0,5.2-2.3,5.2-5.2C136.9,65.6,134.6,63.3,131.7,63.3L131.7,63.3z M132.3,100
	c0-17.8-14.5-32.3-32.3-32.3c-17.8,0-32.3,14.5-32.3,32.3c0,17.9,14.5,32.3,32.3,32.3C117.9,132.3,132.3,117.9,132.3,100L132.3,100z
	"/>
</svg>
