<?xml version="1.0" encoding="utf-8"?>
<!-- Generator: Adobe Illustrator 22.0.1, SVG Export Plug-In . SVG Version: 6.00 Build 0)  -->
<svg version="1.1" id="Layer_1" xmlns="http://www.w3.org/2000/svg" xmlns:xlink="http://www.w3.org/1999/xlink" x="0px" y="0px"
	 viewBox="0 0 200 200" style="enable-background:new 0 0 200 200;" xml:space="preserve">
<style type="text/css">
	.st0{fill:#FFFFFF;}
	.st1{fill-rule:evenodd;clip-rule:evenodd;fill:#FFFFFF;}
</style>
<path class="st0" d="M100,0c27.6,0,52.6,11.2,70.7,29.3C188.8,47.4,200,72.4,200,100c0,27.6-11.2,52.6-29.3,70.7
	C152.6,188.8,127.6,200,100,200c-27.6,0-52.6-11.2-70.7-29.3C11.2,152.6,0,127.6,0,100c0-27.6,11.2-52.6,29.3-70.7
	C47.4,11.2,72.4,0,100,0L100,0z M165.2,34.8c-16.7-16.7-39.7-27-65.2-27c-25.5,0-48.5,10.3-65.2,27c-16.7,16.7-27,39.7-27,65.2
	c0,25.5,10.3,48.5,27,65.2c16.7,16.7,39.7,27,65.2,27c25.5,0,48.5-10.3,65.2-27c16.7-16.7,27-39.7,27-65.2
	C192.2,74.5,181.9,51.5,165.2,34.8L165.2,34.8z"/>
<path class="st1" d="M54.9,100.9v44.2h21V97.3V84.9h-21V100.9z M144.6,103.4c-1.4-11.4-6.6-18.5-22-18.5c-9,0-15.1,3.3-17.7,8.1
	h-0.3v-8.1H87.9v11.6v48.6h17.6v-29.8c0-7.9,1.6-15.4,11.2-15.4c9.7,0,10.4,9,10.4,16v29.3h18.1v-33.1
	C145.1,109,145,106.1,144.6,103.4L144.6,103.4z M65.4,54.9c-5.8,0-10.5,4.7-10.5,10.5s4.7,10.5,10.5,10.5c5.8,0,10.5-4.7,10.5-10.5
	S71.2,54.9,65.4,54.9L65.4,54.9z"/>
</svg>
