<?xml version="1.0" encoding="utf-8"?>
<!-- Generator: Adobe Illustrator 22.0.1, SVG Export Plug-In . SVG Version: 6.00 Build 0)  -->
<svg version="1.1" id="Layer_1" xmlns="http://www.w3.org/2000/svg" xmlns:xlink="http://www.w3.org/1999/xlink" x="0px" y="0px"
	 viewBox="0 0 200 200" style="enable-background:new 0 0 200 200;" xml:space="preserve">
<style type="text/css">
	.st0{fill:#FFFFFF;}
	.st1{display:none;}
	.st2{font-family:'Jaapokki-Regular';}
	.st3{font-size:100px;}
</style>
<path class="st0" d="M200,200H0V0h200V200z M12,188h176V12H12V188z"/>
<text transform="matrix(1 0 0 1 10.6504 122.9744)" class="st1 st2 st3">Ae</text>
<g>
	<path class="st0" d="M91,121.5h-29l-6.6,13H39.6l35.7-70.1h4.1l33.1,70.1H97.1L91,121.5z M84.4,107.5l-7.3-15.6l-7.9,15.6H84.4z"/>
	<path class="st0" d="M154.8,127.7c-4.1,4.9-10.4,8-17.3,8c-12.6,0-22.9-10.3-22.9-22.9c0-12.7,10.3-22.9,22.9-22.9
		c12.6,0,22.9,10.2,22.9,22.9c0,1.4-0.1,2.7-0.4,4.1h-32.2c0.6,1.6,1.4,3,2.5,4.2c2.1,2.3,4.8,3.5,7.7,3.5c2.7,0,5.4-1.2,7.4-3.2
		L154.8,127.7z M148.3,109.2c-0.5-1.8-1.4-3.5-2.7-4.9c-2-2.2-4.8-3.4-7.6-3.4c-2.9,0-5.6,1.2-7.7,3.4c-1.2,1.4-2.1,3.1-2.7,4.9
		H148.3z"/>
</g>
</svg>
