<?xml version="1.0" encoding="utf-8"?>
<!-- Generator: Adobe Illustrator 22.0.1, SVG Export Plug-In . SVG Version: 6.00 Build 0)  -->
<svg version="1.1" id="Layer_1" xmlns="http://www.w3.org/2000/svg" xmlns:xlink="http://www.w3.org/1999/xlink" x="0px" y="0px"
	 viewBox="0 0 200 200" style="enable-background:new 0 0 200 200;" xml:space="preserve">
<style type="text/css">
	.st0{fill:#FFFFFF;}
	.st1{fill-rule:evenodd;clip-rule:evenodd;fill:#FFFFFF;}
</style>
<path class="st0" d="M100,0c27.6,0,52.6,11.2,70.7,29.3C188.8,47.4,200,72.4,200,100c0,27.6-11.2,52.6-29.3,70.7
	C152.6,188.8,127.6,200,100,200s-52.6-11.2-70.7-29.3C11.2,152.6,0,127.6,0,100c0-27.6,11.2-52.6,29.3-70.7C47.4,11.2,72.4,0,100,0
	L100,0z M165.2,34.8c-16.7-16.7-39.7-27-65.2-27s-48.5,10.3-65.2,27c-16.7,16.7-27,39.7-27,65.2c0,25.5,10.3,48.5,27,65.2
	c16.7,16.7,39.7,27,65.2,27s48.5-10.3,65.2-27c16.7-16.7,27-39.7,27-65.2C192.2,74.5,181.9,51.5,165.2,34.8L165.2,34.8z"/>
<path class="st1" d="M60.6,103.3h16.3c3.7,0,9.9,1.6,9.9,8.5c0,3.7-2.9,7.9-6.5,7.9H60.6V103.3z M113.2,70.4h29.5v9.8h-29.5V70.4z
	 M138.7,103.3h-21.6c0.7-5.8,5.1-9.7,10.9-9.7C133.7,93.5,137.9,97.5,138.7,103.3L138.7,103.3z M116.4,109.8h36.2c0-0.5,0-1.1,0-1.6
	c0-13.6-9.8-24.6-24.6-24.6c-14.9,0-24.6,11.1-24.6,24.6c0,13.7,9.7,24.6,24.6,24.6c14.8,0,21.9-8.5,24.1-19.8h-13.3
	c-1.2,5.8-4.6,9.9-10.7,9.9C121.7,123,116.9,117.2,116.4,109.8L116.4,109.8z M100.1,113.1c0-7.1-4.8-13.2-11.2-15.4
	c4.6-2.9,7.8-8.1,7.8-14.1c0-9-7.4-16.4-16.3-16.4H47.4v65.7h32.9C91.1,132.8,100.1,124,100.1,113.1L100.1,113.1z M76.9,93.5H60.6
	V80.2h16.3c3.7,0,6.6,3,6.6,6.7C83.6,90.5,80.6,93.5,76.9,93.5L76.9,93.5z"/>
</svg>
