<?xml version="1.0" encoding="utf-8"?>
<!-- Generator: Adobe Illustrator 22.0.1, SVG Export Plug-In . SVG Version: 6.00 Build 0)  -->
<svg version="1.1" id="Layer_1" xmlns="http://www.w3.org/2000/svg" xmlns:xlink="http://www.w3.org/1999/xlink" x="0px" y="0px"
	 viewBox="0 0 300 192.3" style="enable-background:new 0 0 300 192.3;" xml:space="preserve">
<style type="text/css">
	.st0{display:none;fill:#FFFFFF;}
	.st1{fill:#333333;}
</style>
<rect y="0" class="st0" width="300" height="12"/>
<rect y="180" class="st0" width="300" height="12"/>
<path class="st1" d="M292.1,192H7.9V33.1H101L113.3,0h73.4L199,33.1h93.1V192z M25.4,174.5h249.2V50.6h-87.7l-2.3-6l-10-27.1h-49
	l-12.3,33.2H25.4V174.5z"/>
<path class="st1" d="M150,152.1c-22.9,0-41.5-18.6-41.5-41.5S127.1,69,150,69s41.5,18.6,41.5,41.5S172.9,152.1,150,152.1z M150,86.5
	c-13.3,0-24,10.8-24,24c0,13.3,10.8,24,24,24c13.3,0,24-10.8,24-24C174,97.3,163.3,86.5,150,86.5z"/>
</svg>
